<svg width="27" height="27" viewBox="0 0 27 27" fill="none" xmlns="http://www.w3.org/2000/svg">
<path d="M26.8117 7.90259L23.3831 4.47402C23.2932 4.38412 23.1786 4.3229 23.054 4.2981C22.9293 4.27329 22.8 4.28602 22.6825 4.33468C22.5651 4.38333 22.4647 4.46572 22.394 4.57143C22.3234 4.67715 22.2857 4.80143 22.2857 4.92857V6H21V2.35714C20.9993 1.7322 20.7507 1.13306 20.3088 0.691159C19.8669 0.249259 19.2678 0.000694796 18.6428 0H8.35711C7.73217 0.000694796 7.13303 0.249259 6.69113 0.691159C6.24923 1.13306 6.00067 1.7322 5.99997 2.35714V16.2857H4.71426V15.2143C4.71425 15.0871 4.67654 14.9629 4.60591 14.8572C4.53527 14.7514 4.43487 14.669 4.31741 14.6204C4.19994 14.5717 4.07069 14.559 3.94599 14.5838C3.82129 14.6086 3.70675 14.6698 3.61685 14.7597L0.188273 18.1883C0.0677235 18.3089 0 18.4724 0 18.6429C0 18.8133 0.0677235 18.9769 0.188273 19.0974L3.61685 22.526C3.9986 22.9325 4.7322 22.6264 4.71426 22.0714V21H5.99997V24.6429C6.00067 25.2678 6.24923 25.8669 6.69113 26.3088C7.13303 26.7507 7.73217 26.9993 8.35711 27H18.6428C19.2678 26.9993 19.8669 26.7507 20.3088 26.3088C20.7507 25.8669 20.9993 25.2678 21 24.6429V10.7143H22.2857V11.7857C22.2678 12.3409 23.0013 12.6467 23.3831 12.2403L26.8117 8.8117C26.9322 8.69114 26.9999 8.52763 26.9999 8.35714C26.9999 8.18665 26.9322 8.02315 26.8117 7.90259V7.90259ZM8.35711 1.28571H18.6428C18.9269 1.28604 19.1992 1.39903 19.4001 1.59989C19.6009 1.80075 19.7139 2.07308 19.7143 2.35714V3.42857H7.28568V2.35714C7.28601 2.07308 7.399 1.80075 7.59986 1.59989C7.80072 1.39903 8.07305 1.28604 8.35711 1.28571V1.28571ZM18.6428 25.7143H8.35711C8.07305 25.714 7.80072 25.601 7.59986 25.4001C7.399 25.1993 7.28601 24.9269 7.28568 24.6429V23.5714H19.7143V24.6429C19.7139 24.9269 19.6009 25.1993 19.4001 25.4001C19.1992 25.601 18.9269 25.714 18.6428 25.7143V25.7143ZM23.5714 10.2337V10.0714C23.5714 9.90093 23.5037 9.73742 23.3831 9.61686C23.2626 9.4963 23.099 9.42857 22.9285 9.42857H17.7857C17.6152 9.42857 17.4517 9.4963 17.3311 9.61686C17.2106 9.73742 17.1428 9.90093 17.1428 10.0714C17.1428 10.2419 17.2106 10.4054 17.3311 10.526C17.4517 10.6466 17.6152 10.7143 17.7857 10.7143H19.7143V22.2857H7.28568V21H9.21426C9.38475 21 9.54827 20.9323 9.66882 20.8117C9.78938 20.6912 9.85711 20.5276 9.85711 20.3571C9.85711 20.1866 9.78938 20.0231 9.66882 19.9026C9.54827 19.782 9.38475 19.7143 9.21426 19.7143H4.0714C3.9009 19.7143 3.73739 19.782 3.61683 19.9026C3.49627 20.0231 3.42854 20.1866 3.42854 20.3571V20.5194L1.55199 18.6429L3.42854 16.7663V16.9286C3.42854 17.0991 3.49627 17.2626 3.61683 17.3831C3.73739 17.5037 3.9009 17.5714 4.0714 17.5714H9.21426C9.38475 17.5714 9.54827 17.5037 9.66882 17.3831C9.78938 17.2626 9.85711 17.0991 9.85711 16.9286C9.85711 16.7581 9.78938 16.5946 9.66882 16.474C9.54827 16.3534 9.38475 16.2857 9.21426 16.2857H7.28568V4.71429H19.7143V6H17.7857C17.6152 6 17.4517 6.06773 17.3311 6.18829C17.2106 6.30885 17.1428 6.47236 17.1428 6.64286C17.1428 6.81335 17.2106 6.97687 17.3311 7.09743C17.4517 7.21798 17.6152 7.28571 17.7857 7.28571H22.9285C23.099 7.28571 23.2626 7.21798 23.3831 7.09743C23.5037 6.97687 23.5714 6.81335 23.5714 6.64286V6.48059L25.448 8.35714L23.5714 10.2337Z" fill="#CA8E8E"/>
<path d="M12.6429 10.7143H14.7858C14.9562 10.7145 15.1196 10.7823 15.2401 10.9028C15.3607 11.0233 15.4284 11.1867 15.4286 11.3572C15.4286 11.5276 15.4964 11.6912 15.6169 11.8117C15.7375 11.9323 15.901 12 16.0715 12C16.242 12 16.4055 11.9323 16.5261 11.8117C16.6466 11.6912 16.7143 11.5276 16.7143 11.3572C16.7138 10.8458 16.5104 10.3556 16.1488 9.99407C15.7873 9.63252 15.2971 9.42915 14.7858 9.42858H14.1429V8.35715C14.1429 8.18666 14.0752 8.02314 13.9546 7.90258C13.8341 7.78202 13.6705 7.71429 13.5001 7.71429C13.3296 7.71429 13.166 7.78202 13.0455 7.90258C12.9249 8.02314 12.8572 8.18666 12.8572 8.35715V9.42858H12.6429C12.0178 9.42858 11.4182 9.67692 10.9762 10.119C10.5341 10.561 10.2858 11.1606 10.2858 11.7857C10.2858 12.4109 10.5341 13.0104 10.9762 13.4525C11.4182 13.8945 12.0178 14.1429 12.6429 14.1429H14.3572C14.6414 14.1429 14.9139 14.2557 15.1148 14.4567C15.3157 14.6576 15.4286 14.9301 15.4286 15.2143C15.4286 15.4985 15.3157 15.771 15.1148 15.9719C14.9139 16.1728 14.6414 16.2857 14.3572 16.2857H12.2143C12.0439 16.2855 11.8805 16.2177 11.76 16.0972C11.6395 15.9767 11.5717 15.8133 11.5715 15.6429C11.5715 15.4724 11.5038 15.3089 11.3832 15.1883C11.2626 15.0677 11.0991 15 10.9286 15C10.7581 15 10.5946 15.0677 10.4741 15.1883C10.3535 15.3089 10.2858 15.4724 10.2858 15.6429C10.2863 16.1542 10.4897 16.6444 10.8513 17.0059C11.2128 17.3675 11.703 17.5709 12.2143 17.5714H12.8572V18.6429C12.8572 18.8134 12.9249 18.9769 13.0455 19.0974C13.166 19.218 13.3296 19.2857 13.5001 19.2857C13.6705 19.2857 13.8341 19.218 13.9546 19.0974C14.0752 18.9769 14.1429 18.8134 14.1429 18.6429V17.5714H14.3572C14.9823 17.5714 15.5819 17.3231 16.0239 16.881C16.466 16.439 16.7143 15.8394 16.7143 15.2143C16.7143 14.5891 16.466 13.9896 16.0239 13.5475C15.5819 13.1055 14.9823 12.8572 14.3572 12.8572H12.6429C12.3587 12.8572 12.0862 12.7443 11.8853 12.5433C11.6844 12.3424 11.5715 12.0699 11.5715 11.7857C11.5715 11.5016 11.6844 11.229 11.8853 11.0281C12.0862 10.8272 12.3587 10.7143 12.6429 10.7143V10.7143Z" fill="#CA8E8E"/>
</svg>
