<svg width="22" height="22" viewBox="0 0 22 22" fill="none" xmlns="http://www.w3.org/2000/svg">
<path d="M20.9997 11.0923V8.00021C20.9997 6.95173 20.1864 6.09904 19.1589 6.01635L16.2874 1.00081C16.0213 0.536941 15.5916 0.2054 15.0774 0.0677302C14.5657 -0.0690019 14.0306 0.00280941 13.5726 0.269383L3.72885 6.00023H1.99998C0.896985 6.00023 0 6.89717 0 8.00021V20C0 21.103 0.896939 22 1.99998 22H18.9997C20.1027 22 20.9997 21.1031 20.9997 20V16.908C21.5804 16.7009 21.9997 16.1511 21.9997 15.5001V12.5001C21.9997 11.8491 21.5804 11.2994 20.9997 11.0923ZM17.9969 6.00023H13.639L16.9075 4.09732L17.9969 6.00023ZM16.4107 3.22954L11.6516 6.00023H9.67756L15.9171 2.36747L16.4107 3.22954ZM14.076 1.1336C14.302 1.00128 14.5662 0.966122 14.8186 1.03353C15.074 1.10187 15.2869 1.26691 15.4192 1.49786L15.4203 1.49969L7.69023 6.00023H5.71631L14.076 1.1336ZM19.9997 20C19.9997 20.5513 19.551 21 18.9997 21H1.99998C1.44874 21 1.00002 20.5513 1.00002 20V8.00021C1.00002 7.44897 1.44874 7.00024 1.99998 7.00024H18.9997C19.551 7.00024 19.9997 7.44897 19.9997 8.00021V11.0002H16.9997C15.3455 11.0002 13.9998 12.3458 13.9998 14.0001C13.9998 15.6544 15.3455 17.0001 16.9997 17.0001H19.9997V20V20ZM20.9997 15.5001C20.9997 15.7759 20.7756 16.0001 20.4997 16.0001H16.9997C15.8967 16.0001 14.9998 15.1032 14.9998 14.0001C14.9998 12.8971 15.8967 12.0001 16.9997 12.0001H20.4997C20.7756 12.0001 20.9997 12.2242 20.9997 12.5001V15.5001V15.5001Z" fill="#373737"/>
<path d="M16.9996 13.0001C16.4484 13.0001 15.9996 13.4488 15.9996 14.0001C15.9996 14.5513 16.4484 15.0001 16.9996 15.0001C17.5508 15.0001 17.9996 14.5513 17.9996 14.0001C17.9996 13.4488 17.5509 13.0001 16.9996 13.0001Z" fill="#373737"/>
</svg>
