<svg width="22" height="29" viewBox="0 0 22 29" fill="none" xmlns="http://www.w3.org/2000/svg">
<path d="M19.2 3.66879H16.6667V2.53548C16.6667 2.16881 16.2667 2.00216 15.9 2.00216H13.9334C13.4667 0.668825 12.3001 0.00215828 10.9667 0.00215828C9.64807 -0.0474159 8.44865 0.761147 8.00006 2.00216H6.06674C5.70007 2.00216 5.3334 2.16881 5.3334 2.53548V3.66879H2.80001C1.29875 3.68481 0.070565 4.8691 0 6.36876V25.4687C0 26.9354 1.33333 28.002 2.80001 28.002H19.2C20.6667 28.002 22 26.9354 22 25.4687V6.36883C21.9294 4.8691 20.7012 3.68481 19.2 3.66879ZM6.66667 3.33549H8.50002C8.82005 3.29645 9.0771 3.05298 9.13338 2.7355C9.33078 1.87583 10.085 1.25874 10.9667 1.23551C11.8403 1.26199 12.5831 1.881 12.7667 2.7355C12.8265 3.06395 13.1005 3.31055 13.4334 3.33549H15.3334V6.00216H6.66667V3.33549ZM20.6667 25.4688C20.6667 26.2021 19.9333 26.6688 19.2 26.6688H2.80001C2.06667 26.6688 1.33333 26.2021 1.33333 25.4688V6.36883C1.40135 5.6055 2.03375 5.01616 2.80001 5.00219H5.33333V6.70219C5.36855 7.07569 5.69203 7.35508 6.06667 7.33556H15.9C16.2815 7.35642 16.6151 7.08086 16.6666 6.70219V5.00213H19.1999C19.9661 5.01616 20.5986 5.60544 20.6666 6.36876V25.4688H20.6667Z" fill="#CA8E8E"/>
<path d="M8.43331 14.9022C8.18327 14.6386 7.76817 14.6237 7.49995 14.8689L5.3666 16.9022L4.46661 15.9688C4.21657 15.7053 3.80148 15.6904 3.53325 15.9355C3.27505 16.206 3.27505 16.6317 3.53325 16.9022L4.89989 18.3022C5.01818 18.4346 5.18904 18.5079 5.36654 18.5022C5.54238 18.4997 5.71011 18.4278 5.83319 18.3022L8.43318 15.8355C8.69094 15.5991 8.70817 15.1984 8.47165 14.9407C8.45953 14.9273 8.44671 14.9144 8.43331 14.9022Z" fill="#CA8E8E"/>
<path d="M18 16.3355H10.3334C9.96521 16.3355 9.66675 16.634 9.66675 17.0022C9.66675 17.3704 9.96521 17.6688 10.3334 17.6688H18C18.3682 17.6688 18.6667 17.3704 18.6667 17.0022C18.6667 16.634 18.3682 16.3355 18 16.3355Z" fill="#CA8E8E"/>
<path d="M8.43331 9.5688C8.18327 9.30524 7.76817 9.29037 7.49995 9.5355L5.3666 11.5688L4.46661 10.6354C4.21657 10.3719 3.80148 10.357 3.53325 10.6021C3.27505 10.8727 3.27505 11.2983 3.53325 11.5688L4.89989 12.9688C5.01818 13.1013 5.18904 13.1745 5.36654 13.1688C5.54238 13.1663 5.71011 13.0944 5.83319 12.9688L8.43318 10.5022C8.69094 10.2657 8.70817 9.86503 8.47165 9.60734C8.45953 9.59388 8.44671 9.58105 8.43331 9.5688Z" fill="#CA8E8E"/>
<path d="M18 11.0021H10.3334C9.96521 11.0021 9.66675 11.3005 9.66675 11.6687C9.66675 12.0369 9.96521 12.3354 10.3334 12.3354H18C18.3682 12.3354 18.6667 12.0369 18.6667 11.6687C18.6667 11.3005 18.3682 11.0021 18 11.0021Z" fill="#CA8E8E"/>
<path d="M8.43331 20.2354C8.18327 19.9718 7.76817 19.957 7.49995 20.2021L5.3666 22.2354L4.46661 21.302C4.21657 21.0385 3.80148 21.0237 3.53325 21.2687C3.27505 21.5393 3.27505 21.9649 3.53325 22.2354L4.89989 23.6354C5.01818 23.7679 5.18904 23.8411 5.36654 23.8354C5.54238 23.8329 5.71011 23.761 5.83319 23.6354L8.43318 21.1688C8.69094 20.9323 8.70817 20.5316 8.47165 20.2739C8.45953 20.2605 8.44671 20.2477 8.43331 20.2354Z" fill="#CA8E8E"/>
<path d="M18 21.6688H10.3334C9.96521 21.6688 9.66675 21.9672 9.66675 22.3354C9.66675 22.7036 9.96521 23.0021 10.3334 23.0021H18C18.3682 23.0021 18.6667 22.7036 18.6667 22.3354C18.6667 21.9672 18.3682 21.6688 18 21.6688Z" fill="#CA8E8E"/>
</svg>
