<svg width="16" height="18" viewBox="0 0 16 18" fill="none" xmlns="http://www.w3.org/2000/svg">
<path d="M9.52734 18H2.8125C1.26164 18 0 16.7384 0 15.1875V5.66016C0 4.1093 1.26164 2.84766 2.8125 2.84766H9.52734C11.0782 2.84766 12.3398 4.1093 12.3398 5.66016V15.1875C12.3398 16.7384 11.0782 18 9.52734 18ZM2.8125 4.25391C2.03714 4.25391 1.40625 4.8848 1.40625 5.66016V15.1875C1.40625 15.9629 2.03714 16.5938 2.8125 16.5938H9.52734C10.3027 16.5938 10.9336 15.9629 10.9336 15.1875V5.66016C10.9336 4.8848 10.3027 4.25391 9.52734 4.25391H2.8125ZM15.1523 13.4297V2.8125C15.1523 1.26164 13.8907 0 12.3398 0H4.53516C4.14679 0 3.83203 0.314758 3.83203 0.703125C3.83203 1.09149 4.14679 1.40625 4.53516 1.40625H12.3398C13.1152 1.40625 13.7461 2.03714 13.7461 2.8125V13.4297C13.7461 13.8181 14.0609 14.1328 14.4492 14.1328C14.8376 14.1328 15.1523 13.8181 15.1523 13.4297Z" fill="black"/>
</svg>
