<svg width="22" height="22" viewBox="0 0 22 22" fill="none" xmlns="http://www.w3.org/2000/svg">
<path d="M21.9999 3.00968C21.9999 3.00702 21.9996 3.00436 21.9995 3.00165C21.9993 2.99106 21.9987 2.9806 21.9976 2.97025C21.9972 2.96645 21.9965 2.96265 21.996 2.95885C21.9947 2.9493 21.9931 2.93989 21.9911 2.93068C21.9904 2.92702 21.9895 2.92341 21.9886 2.91975C21.9861 2.90973 21.9833 2.89989 21.98 2.8902C21.9794 2.88835 21.979 2.88645 21.9784 2.88464L21.1042 0.41045C21.0161 0.161139 20.8026 0 20.5605 0H18.9688C18.7953 0 18.6546 0.155486 18.6546 0.347314C18.6546 0.539143 18.7953 0.694629 18.9688 0.694629H20.5301L21.2258 2.66369H14.6484L14.2363 0.694629H16.6654C16.839 0.694629 16.9796 0.539143 16.9796 0.347314C16.9796 0.155486 16.839 0 16.6654 0H13.8412H10.6758H3.9564C3.71423 0 3.50084 0.161139 3.41272 0.410544L2.53852 2.88464C2.53787 2.8865 2.53753 2.8884 2.53689 2.8902C2.53362 2.89984 2.53078 2.90968 2.52829 2.91975C2.52739 2.92341 2.52653 2.92702 2.52576 2.93068C2.52378 2.93994 2.52219 2.94935 2.5209 2.95885C2.52039 2.96265 2.51974 2.96645 2.51931 2.97025C2.51824 2.9806 2.51764 2.99106 2.51738 3.00165C2.51734 3.00431 2.51703 3.00697 2.51699 3.00968C2.51699 3.01011 2.51695 3.01053 2.51695 3.01096V8.11355C2.51695 8.30538 2.65758 8.46087 2.83109 8.46087C3.0046 8.46087 3.14524 8.30538 3.14524 8.11355V3.35832H9.80417V8.63754C9.80417 8.844 9.91417 9.03212 10.0845 9.11683C10.1468 9.14785 10.2132 9.163 10.2791 9.163C10.3933 9.163 10.5061 9.11768 10.5947 9.03094L12.2585 7.4013L13.9222 9.03089C14.0619 9.16785 14.2623 9.20153 14.4325 9.11683C14.6028 9.03208 14.7128 8.844 14.7128 8.63754V3.35832H21.3717V18.9365C21.3717 19.1858 21.1882 19.3886 20.9628 19.3886H15.2027C15.2027 19.3846 15.2023 19.3807 15.2023 19.3767C15.2019 19.3456 15.2009 19.3145 15.1985 19.2836C15.7393 19.4421 16.3172 19.1348 16.534 18.5471C16.648 18.238 16.6463 17.8984 16.5292 17.5907C16.5181 17.5617 16.506 17.5336 16.4932 17.5059C16.4908 17.5008 16.4885 17.4957 16.4862 17.4907C16.4736 17.4642 16.4602 17.4385 16.446 17.4133C16.4433 17.4084 16.4405 17.4037 16.4377 17.3988C16.4227 17.373 16.4072 17.3477 16.3907 17.3233C16.3904 17.3229 16.39 17.3224 16.3897 17.322C16.3733 17.2979 16.3559 17.2747 16.338 17.2521C16.3348 17.248 16.3315 17.2438 16.3282 17.2396C16.3105 17.2178 16.292 17.1966 16.273 17.1763C16.2692 17.1723 16.2655 17.1684 16.2617 17.1645C16.2417 17.1438 16.2212 17.1236 16.1999 17.1045C16.1992 17.1039 16.1985 17.1033 16.1977 17.1027C16.1768 17.084 16.155 17.0663 16.1328 17.0493C16.1288 17.0462 16.1248 17.0431 16.1207 17.0401C16.0985 17.0235 16.0757 17.0079 16.0524 16.993C16.0504 16.9918 16.0487 16.9904 16.0467 16.9891C16.1795 16.8621 16.2843 16.7014 16.3525 16.5164C16.4665 16.2072 16.4648 15.8676 16.3477 15.5599C16.2453 15.2907 16.0652 15.0741 15.8346 14.9398C15.8016 14.9206 15.7676 14.9031 15.7327 14.8873L10.8434 12.6832L13.1193 11.9044C13.6607 11.7191 13.9657 11.0806 13.7991 10.4812C13.7369 10.2575 13.6136 10.0688 13.4544 9.93088C13.2174 9.72561 12.9007 9.63293 12.5866 9.70585C12.5851 9.70623 12.5836 9.70651 12.5821 9.70694C12.5647 9.71126 10.82 10.145 8.99782 10.5378C8.917 10.5553 8.83824 10.5721 8.76059 10.5886C8.69846 10.6018 8.63719 10.6148 8.57707 10.6275C8.5598 10.6311 8.54248 10.6347 8.52534 10.6383C8.41921 10.6606 8.31638 10.6819 8.21644 10.7025C8.17622 10.7107 8.13634 10.7189 8.09711 10.7269C5.80873 11.193 5.16588 11.2013 4.98747 11.1746C4.98679 11.1745 4.98618 11.1744 4.9855 11.1743C4.98279 11.1739 4.98013 11.1734 4.97763 11.173C4.97583 11.1727 4.97415 11.1724 4.97248 11.1721C4.97127 11.1718 4.96998 11.1716 4.96882 11.1714C4.9577 11.1692 4.94902 11.1668 4.94231 11.1646L4.89084 11.1414L4.95499 10.9675C5.01807 10.7965 5.01712 10.6086 4.95237 10.4383C4.93617 10.3958 4.91645 10.3556 4.89359 10.3182C4.82501 10.2059 4.72803 10.1185 4.61201 10.0662L2.92472 9.30557C2.77008 9.23578 2.60005 9.23687 2.44609 9.30846C2.29209 9.38005 2.1726 9.51369 2.10952 9.68466L0.0462952 15.2791C-0.0838997 15.6321 0.0699709 16.0364 0.389271 16.1804L2.07661 16.941C2.15365 16.9757 2.23336 16.9922 2.31186 16.9922C2.55863 16.9922 2.79298 16.8296 2.89176 16.5618L2.90728 16.5198L3.29631 16.6951C3.29653 16.6952 3.29674 16.6954 3.297 16.6955C3.66911 16.8632 4.01196 17.1025 4.3087 17.3995C4.36267 17.4536 4.41509 17.5095 4.46592 17.5672C4.51675 17.6249 4.56591 17.6845 4.61339 17.7458C4.63711 17.7764 4.66044 17.8075 4.68325 17.839C5.11565 18.4351 5.68249 18.9027 6.32242 19.1912L6.7601 19.3885H3.55413C3.32871 19.3885 3.14528 19.1857 3.14528 18.9365V18.0577C3.14528 17.8659 3.00464 17.7104 2.83114 17.7104C2.65763 17.7104 2.51699 17.8659 2.51699 18.0577V18.9365C2.51699 19.5688 2.98221 20.0831 3.55413 20.0831H8.301L12.3478 21.9075C12.4871 21.9703 12.6312 22 12.7732 22C13.2191 22 13.6427 21.7062 13.8213 21.2221C13.8945 21.0236 13.918 20.8161 13.8983 20.6166C14.1088 20.65 14.327 20.6194 14.5248 20.5249C14.7259 20.4289 14.8925 20.276 15.0109 20.0831H20.9629C21.5347 20.0831 22 19.5688 22 18.9364V3.01101C22 3.01053 21.9999 3.01015 21.9999 3.00968ZM10.9255 0.694629H13.5914L14.0035 2.66369H10.5134L10.9255 0.694629ZM9.86854 2.66369H3.29111L3.98682 0.694629H10.2806L9.86854 2.66369ZM14.0846 8.26182H14.0845L12.5737 6.78201C12.4838 6.69403 12.3712 6.65004 12.2585 6.65004C12.1459 6.65004 12.0332 6.69403 11.9433 6.78201L10.4325 8.26182V3.35832H14.0846V8.26182V8.26182ZM2.31109 16.2966L0.629165 15.5384L2.6902 9.95003L4.37212 10.7083L2.31109 16.2966ZM14.8616 18.3926L14.501 18.23C14.5009 18.2299 14.5007 18.2298 14.5005 18.2298C14.5004 18.2297 14.5003 18.2296 14.5001 18.2296C14.5001 18.2296 14.5 18.2295 14.5 18.2295L10.7451 16.5368C10.5845 16.4644 10.4012 16.5497 10.3356 16.7273C10.2701 16.905 10.3473 17.1077 10.508 17.1801L14.2629 18.8728C14.2786 18.8799 14.2937 18.8878 14.3084 18.8964C14.3125 18.8988 14.3163 18.9017 14.3204 18.9042C14.3307 18.9107 14.3411 18.9172 14.3508 18.9243C14.3555 18.9278 14.3598 18.9318 14.3643 18.9354C14.373 18.9422 14.3818 18.949 14.39 18.9564C14.3949 18.9609 14.3994 18.9659 14.4041 18.9705C14.4114 18.9777 14.4189 18.9846 14.4258 18.9922C14.4306 18.9974 14.4348 19.0032 14.4394 19.0086C14.4457 19.0161 14.4522 19.0235 14.4581 19.0314C14.4626 19.0374 14.4666 19.0438 14.4709 19.05C14.4762 19.0578 14.4818 19.0655 14.4868 19.0736C14.4909 19.0803 14.4945 19.0874 14.4984 19.0943C14.5028 19.1023 14.5076 19.1101 14.5116 19.1183C14.5153 19.1258 14.5184 19.1335 14.5218 19.1411C14.5254 19.1492 14.5293 19.1572 14.5326 19.1655C14.5357 19.1735 14.5383 19.1817 14.5411 19.1898C14.5439 19.1981 14.547 19.2061 14.5495 19.2145C14.552 19.2229 14.5539 19.2315 14.556 19.24C14.5581 19.2484 14.5605 19.2567 14.5622 19.2652C14.564 19.2738 14.5651 19.2825 14.5665 19.2912C14.5679 19.2998 14.5696 19.3084 14.5706 19.3171C14.5716 19.3259 14.572 19.3347 14.5727 19.3435C14.5733 19.3523 14.5742 19.3611 14.5745 19.3699C14.5748 19.3786 14.5744 19.3874 14.5743 19.3962C14.5742 19.4052 14.5743 19.4142 14.5738 19.4233C14.5733 19.4319 14.5722 19.4405 14.5713 19.4491C14.5704 19.4583 14.5697 19.4676 14.5684 19.4768C14.5671 19.4853 14.5652 19.4937 14.5636 19.5021C14.5618 19.5115 14.5603 19.5209 14.558 19.5302C14.556 19.5384 14.5534 19.5466 14.551 19.5547C14.5483 19.564 14.5459 19.5734 14.5428 19.5825C14.5401 19.5888 14.5375 19.5952 14.535 19.6016C14.5345 19.6031 14.5342 19.6046 14.5336 19.606C14.4846 19.7313 14.394 19.8308 14.2757 19.8873C14.1455 19.9494 13.9964 19.9516 13.8667 19.8931L13.2014 19.5932C13.1983 19.5918 13.1952 19.5908 13.1921 19.5896C13.1889 19.588 13.186 19.5862 13.1828 19.5848L10.1288 18.208C9.96801 18.1356 9.78475 18.2208 9.71926 18.3985C9.65374 18.5761 9.73087 18.7788 9.89153 18.8513L12.9456 20.228C12.9488 20.2295 12.9521 20.2306 12.9554 20.2319C12.9584 20.2333 12.9612 20.2351 12.9642 20.2364C13.2205 20.352 13.3441 20.6765 13.2396 20.9599C13.135 21.2434 12.8416 21.38 12.5851 21.2643L8.48185 19.4145C8.48168 19.4145 8.48151 19.4144 8.48134 19.4143L6.55978 18.548C6.22153 18.3955 5.90743 18.1839 5.63015 17.9235C5.46378 17.7672 5.31068 17.5935 5.17353 17.4044C5.03839 17.2182 4.89015 17.0444 4.73065 16.8848C4.37972 16.5336 3.97432 16.2506 3.53436 16.0522C3.53432 16.0522 3.53427 16.0521 3.53423 16.0521L3.14468 15.8766L3.92056 13.7728L4.65378 11.7847L4.70788 11.8091C4.75879 11.832 4.83141 11.8646 5.02683 11.8728C5.27098 11.885 5.67488 11.8568 6.39848 11.7438C6.89068 11.6669 7.49443 11.5558 8.19925 11.4124C8.21661 11.4089 8.23384 11.4054 8.25137 11.4018C8.28433 11.3951 8.31763 11.3882 8.35106 11.3814C8.37705 11.3761 8.40318 11.3706 8.42952 11.3652C8.45951 11.359 8.48963 11.3527 8.51997 11.3464C8.55215 11.3397 8.58472 11.3329 8.61746 11.326C8.64367 11.3205 8.66984 11.3151 8.69631 11.3095C8.73623 11.3011 8.77683 11.2925 8.81757 11.2838C8.83854 11.2794 8.85929 11.275 8.88043 11.2705C8.94282 11.2572 9.00603 11.2438 9.07039 11.2299C10.8863 10.8394 12.639 10.4048 12.7177 10.3852C12.7256 10.3834 12.7335 10.3824 12.7413 10.3811C12.9431 10.3481 13.1408 10.4771 13.1987 10.6853C13.219 10.7584 13.2214 10.8331 13.2086 10.9033C13.1804 11.0578 13.0789 11.1912 12.9337 11.2408L9.81921 12.3065C9.69241 12.35 9.60398 12.4767 9.59826 12.6233C9.59251 12.7698 9.67062 12.9046 9.79351 12.96L15.4956 15.5306C15.6198 15.5865 15.7168 15.6926 15.7688 15.8293C15.8208 15.966 15.8216 16.1168 15.7709 16.2541C15.7203 16.3914 15.6244 16.4986 15.5007 16.5561C15.4389 16.5848 15.3739 16.5994 15.3088 16.5998C15.3079 16.5998 15.3069 16.5996 15.306 16.5996C15.2907 16.5996 15.2755 16.599 15.2602 16.5974C15.2557 16.5969 15.2512 16.5959 15.2467 16.5953C15.2351 16.5938 15.2234 16.5923 15.2119 16.5898C15.2046 16.5882 15.1973 16.5859 15.1901 16.584C15.1814 16.5817 15.1727 16.5797 15.1641 16.5769C15.1552 16.574 15.1465 16.5702 15.1377 16.5667C15.1307 16.564 15.1236 16.5617 15.1168 16.5586L11.3615 14.8657C11.2008 14.7932 11.0175 14.8785 10.952 15.0562C10.8865 15.2338 10.9636 15.4365 11.1243 15.509L15.677 17.5613C15.7081 17.5753 15.7375 17.5925 15.7648 17.6124C15.8469 17.6723 15.9113 17.7575 15.9502 17.8601C15.9957 17.9796 16.002 18.1101 15.9689 18.2328C15.9642 18.2503 15.9587 18.2677 15.9523 18.2849C15.9458 18.3026 15.9385 18.3197 15.9306 18.3363C15.9121 18.3747 15.8895 18.4095 15.8643 18.4412C15.8487 18.4609 15.832 18.4792 15.8142 18.496C15.8114 18.4987 15.8088 18.5017 15.8059 18.5043C15.6913 18.6079 15.538 18.6525 15.3882 18.6191C15.3579 18.6123 15.3277 18.6026 15.2979 18.5892L14.8616 18.3926Z" fill="#373737"/>
</svg>
