<svg width="22" height="22" viewBox="0 0 22 22" fill="none" xmlns="http://www.w3.org/2000/svg">
<path d="M12.375 12.9412H6.87496C6.62196 12.9412 6.41663 12.6513 6.41663 12.2941V0.647059C6.41663 0.289882 6.62196 0 6.87496 0H12.375C12.628 0 12.8333 0.289882 12.8333 0.647059V12.2941C12.8333 12.6513 12.628 12.9412 12.375 12.9412ZM7.33329 11.6471H11.9166V1.29412H7.33329V11.6471Z" fill="#373737"/>
<path d="M6.87504 12.9411H2.29171C2.03871 12.9411 1.83337 12.6513 1.83337 12.2941V4.52938C1.83337 4.17221 2.03871 3.88232 2.29171 3.88232H6.87504C7.12804 3.88232 7.33337 4.17221 7.33337 4.52938C7.33337 4.88656 7.12804 5.17644 6.87504 5.17644H2.75004V11.647H6.87504C7.12804 11.647 7.33337 11.9369 7.33337 12.2941C7.33337 12.6513 7.12804 12.9411 6.87504 12.9411Z" fill="#373737"/>
<path d="M5.04171 7.76468C4.78871 7.76468 4.58337 7.48798 4.58337 7.14706V4.49994C4.58337 4.15902 4.78871 3.88232 5.04171 3.88232C5.29471 3.88232 5.50004 4.15902 5.50004 4.49994V7.14706C5.50004 7.48798 5.29471 7.76468 5.04171 7.76468Z" fill="#373737"/>
<path d="M9.62496 3.88235C9.37196 3.88235 9.16663 3.59591 9.16663 3.24297V0.639386C9.16663 0.286445 9.37196 0 9.62496 0C9.87796 0 10.0833 0.286445 10.0833 0.639386V3.24297C10.0833 3.59591 9.87796 3.88235 9.62496 3.88235Z" fill="#373737"/>
<path d="M14.2083 19.4117H5.95833C5.70533 19.4117 5.5 19.1219 5.5 18.7647C5.5 18.4075 5.70533 18.1176 5.95833 18.1176H13.75V12.9411H0.916667V18.1176H2.29167C2.54467 18.1176 2.75 18.4075 2.75 18.7647C2.75 19.1219 2.54467 19.4117 2.29167 19.4117H0.458333C0.205333 19.4117 0 19.1219 0 18.7647V12.2941C0 11.9369 0.205333 11.647 0.458333 11.647H13.75V4.52938C13.75 4.17221 13.9553 3.88232 14.2083 3.88232C14.4613 3.88232 14.6667 4.17221 14.6667 4.52938V18.7647C14.6667 19.1219 14.4613 19.4117 14.2083 19.4117Z" fill="#373737"/>
<path d="M21.5417 19.4117H19.25C18.997 19.4117 18.7917 19.1219 18.7917 18.7647C18.7917 18.4075 18.997 18.1176 19.25 18.1176H21.0833V9.70585C21.0833 7.20821 19.6442 5.17644 17.875 5.17644H14.6667V18.1176H15.5833C15.8363 18.1176 16.0417 18.4075 16.0417 18.7647C16.0417 19.1219 15.8363 19.4117 15.5833 19.4117H14.2083C13.9553 19.4117 13.75 19.1219 13.75 18.7647V4.52938C13.75 4.17221 13.9553 3.88232 14.2083 3.88232H17.875C20.1493 3.88232 22 6.49515 22 9.70585V18.7647C22 19.1219 21.7947 19.4117 21.5417 19.4117Z" fill="#373737"/>
<path d="M17.4166 22C15.8997 22 14.6666 20.548 14.6666 18.7647C14.6666 16.9814 15.8997 15.5294 17.4166 15.5294C18.9335 15.5294 20.1666 16.9814 20.1666 18.7647C20.1666 20.548 18.9335 22 17.4166 22ZM17.4166 16.8235C16.5069 16.8235 15.7666 17.6945 15.7666 18.7647C15.7666 19.8349 16.5069 20.7059 17.4166 20.7059C18.3263 20.7059 19.0666 19.8349 19.0666 18.7647C19.0666 17.6945 18.3263 16.8235 17.4166 16.8235Z" fill="#373737"/>
<path d="M4.12504 22C2.86096 22 1.83337 20.548 1.83337 18.7647C1.83337 16.9814 2.86096 15.5294 4.12504 15.5294C5.38912 15.5294 6.41671 16.9814 6.41671 18.7647C6.41671 20.548 5.38912 22 4.12504 22ZM4.12504 16.8235C3.36696 16.8235 2.75004 17.6945 2.75004 18.7647C2.75004 19.8349 3.36696 20.7059 4.12504 20.7059C4.88312 20.7059 5.50004 19.8349 5.50004 18.7647C5.50004 17.6945 4.88312 16.8235 4.12504 16.8235Z" fill="#373737"/>
</svg>
