<svg width="22" height="22" viewBox="0 0 22 22" fill="none" xmlns="http://www.w3.org/2000/svg">
<path d="M7.1081 8.53528H3.27611C2.92029 8.53528 2.63184 8.82387 2.63184 9.17988C2.63184 9.53588 2.92029 9.82448 3.27611 9.82448H7.1081C7.46393 9.82448 7.75238 9.53588 7.75238 9.17988C7.75238 8.82387 7.46393 8.53528 7.1081 8.53528Z" fill="#373737"/>
<path d="M5.85024 11.7397H3.27611C2.92029 11.7397 2.63184 12.0283 2.63184 12.3843C2.63184 12.7404 2.92029 13.0289 3.27611 13.0289H5.85024C6.20606 13.0289 6.49451 12.7404 6.49451 12.3843C6.49451 12.0283 6.20606 11.7397 5.85024 11.7397Z" fill="#373737"/>
<path d="M16.7976 9.59305V1.28834C16.7976 0.577965 16.2199 0 15.51 0C15.1354 0 2.78429 0 1.28769 0C0.577715 0 0 0.578008 0 1.28834V15.5178C0 16.2286 0.577715 16.8066 1.28769 16.8066H9.60145C10.1035 19.7512 12.6721 22 15.756 22C19.1991 22 22 19.1977 22 15.7529C22 12.6635 19.7468 10.0907 16.7976 9.59305V9.59305ZM6.27958 1.2892H10.5181V3.61882L8.63891 2.86377C8.48942 2.80363 8.31759 2.80019 8.15869 2.86377L6.27954 3.61882V1.2892H6.27958ZM9.51732 15.5174L1.28859 15.5178L1.28773 1.2892L4.99104 1.28877V4.57239C4.99104 5.02934 5.45381 5.33952 5.87542 5.17061L8.39884 4.15642L10.9223 5.17061C11.3499 5.34081 11.8067 5.02418 11.8067 4.57239V1.28877L15.5091 1.28834L15.51 9.51136C12.2589 9.63771 9.63798 12.2634 9.51732 15.5174V15.5174ZM15.7561 20.7108C13.3851 20.7108 11.3978 19.0361 10.9141 16.8066C10.148 13.3064 13.2777 10.1448 16.7977 10.9059C19.0316 11.3855 20.7115 13.3765 20.7115 15.7529C20.7115 18.4869 18.4883 20.7108 15.7561 20.7108Z" fill="#373737"/>
<path d="M17.3329 14.1545C16.6408 14.678 17.1157 14.3186 14.9727 15.9405C14.5577 15.4108 14.7107 15.6061 14.2983 15.0798C13.9074 14.5817 13.1099 14.8903 13.1481 15.5172C13.1634 15.782 13.2 15.7675 14.349 17.2349C14.5659 17.5113 14.9639 17.563 15.245 17.3513L18.1099 15.1829C18.3938 14.968 18.4496 14.5636 18.2353 14.28C18.0205 13.996 17.6163 13.9401 17.3329 14.1545Z" fill="#373737"/>
</svg>
